# xmcd
# Track frame offsets:
# 150
# 15955
# 28210
# 41447
# 61275
# 79370
# 90360
# 102655
# 113012
# 123362
# 136180
# 144445
# 161680
# 173050
# 182440
# 197997
# 205285
# 217815
# 231732
# 245142
# 260867
# 280935
# 292947
#
# Disc length: 4108 seconds
# Revision: 2
# Processed by: cddbd v1.4PL0 Copyright (c) Steve Scherf et al.
# Submitted via: VisiTrax 2.9.7.197 - For more info visit www.synapsa.com
#
DISCID=51100a17
DTITLE=Collections - The Time-Life Treasury Of Christmas, Vol II, Disk 2
DYEAR=1900
DGENRE=
TTITLE0=Perry Como - White Christmas
TTITLE1=Andrew Sisters - Winterland
TTITLE2=Bing Crosby - I'll Be Home For Christmas
TTITLE3=Robert Shaw Chorale - The Twelve Days Of Christmas
TTITLE4=Harry Belefonte - The Gifts They Gave
TTITLE5=Arthur Fiedler, Al Hirt and The Boston Pops - The Toy Trunpet
TTITLE6=Roger Whittaker - God Rest Ye Merry Gentlemen
TTITLE7=Ames Brothers - Good King Wenceslas
TTITLE8=Bing Crosby - Rudolph The Red Nosed Reindeer
TTITLE9=Jim Reeves - C-H-R-I-S-T-M-A-S
TTITLE10=Chet Atkins - Jingle Bell Rock
TTITLE11=Gladys Knight And The Pips - That Special Time Of The Year
TTITLE12=Willie Nelson - Pretty Paper
TTITLE13=Roger Miller - Old Toy Trains
TTITLE14=Robert Shaw - Medley: We Three Kings/The First Noel/Hark, The Herald A
TTITLE14=ngels Sing
TTITLE15=Perry Como - Medley: Here We Come A-Caroling/We Wish You A Merry Chris
TTITLE15=tmas
TTITLE16=Ed Ames - Do You Hear What I Hear
TTITLE17=Cambridge Choir Of King's College - Shepherds In The Field Waiting
TTITLE18=Julie Andrews - Joy To The World
TTITLE19=Virgil Fox - O Come, O Come Emmanuel
TTITLE20=Luciano Pavarotti - Gesu  Bambino
TTITLE21=Renata Tebaldi - Ave Maria (Bach/Gounod)
TTITLE22=Robert Shaw Chorale and Orchestra - Hailelujah Chorus From Messiah
EXTD=
EXTT0=
EXTT1=
EXTT2=
EXTT3=
EXTT4=
EXTT5=
EXTT6=
EXTT7=
EXTT8=
EXTT9=
EXTT10=
EXTT11=
EXTT12=
EXTT13=
EXTT14=
EXTT15=
EXTT16=
EXTT17=
EXTT18=
EXTT19=
EXTT20=
EXTT21=
EXTT22=
PLAYORDER=
